<svg width="1782" height="438" viewBox="0 0 1782 438" fill="none" xmlns="http://www.w3.org/2000/svg">
<g clip-path="url(#clip0_253_2)">
<path d="M358.697 52.1133H20.499V389.843H358.697V52.1133Z" fill="#D3AE34"/>
<path fill-rule="evenodd" clip-rule="evenodd" d="M256.758 72.957C214.579 134.368 215.531 197.788 235.873 262.196C179.571 203.974 165.447 88.8663 256.758 72.957Z" fill="white"/>
<path fill-rule="evenodd" clip-rule="evenodd" d="M189.164 116.689C87.3213 189.28 196.985 293.762 268.917 336.014C224.775 269.765 157.615 201.471 189.164 116.689Z" fill="white"/>
<path fill-rule="evenodd" clip-rule="evenodd" d="M251.046 336.989C197.118 303.281 149.288 262.798 131.332 188.896C88.5627 289.165 172.618 318.721 251.046 336.989Z" fill="white"/>
<path fill-rule="evenodd" clip-rule="evenodd" d="M233.801 348.686C179.692 336.808 135.296 315.194 110.278 274.627C113.942 359.962 162.326 358.915 233.801 348.686Z" fill="white"/>
<path d="M418.719 208.022V68.2261H465.955C476.922 68.2261 485.887 70.2056 492.85 74.1647C499.858 78.0783 505.046 83.3798 508.413 90.0693C511.781 96.7587 513.464 104.222 513.464 112.459C513.464 120.695 511.781 128.181 508.413 134.916C505.091 141.651 499.949 147.021 492.986 151.025C486.024 154.984 477.104 156.964 466.228 156.964H432.371V141.947H465.682C473.191 141.947 479.221 140.65 483.771 138.056C488.322 135.462 491.621 131.958 493.669 127.544C495.762 123.084 496.809 118.056 496.809 112.459C496.809 106.861 495.762 101.855 493.669 97.4413C491.621 93.0272 488.299 89.5687 483.703 87.0658C479.107 84.5175 473.009 83.2433 465.409 83.2433H435.648V208.022H418.719ZM540.734 208.022V68.2261H557.663V137.578H559.301L622.1 68.2261H644.216L585.513 131.298L644.216 208.022H623.738L575.137 143.039L557.663 162.698V208.022H540.734ZM666.128 208.022V68.2261H683.056V130.479H757.596V68.2261H774.524V208.022H757.596V145.496H683.056V208.022H666.128ZM808.415 208.022V68.2261H892.785V83.2433H825.344V130.479H888.416V145.496H825.344V193.005H893.877V208.022H808.415ZM966.437 208.022H923.297V68.2261H968.349C981.91 68.2261 993.514 71.0248 1003.16 76.6221C1012.81 82.1739 1020.2 90.1603 1025.35 100.581C1030.49 110.957 1033.06 123.38 1033.06 137.851C1033.06 152.413 1030.47 164.95 1025.28 175.462C1020.09 185.929 1012.54 193.984 1002.62 199.626C992.695 205.224 980.635 208.022 966.437 208.022ZM940.225 193.005H965.345C976.904 193.005 986.483 190.775 994.083 186.316C1001.68 181.856 1007.35 175.508 1011.08 167.271C1014.81 159.035 1016.68 149.228 1016.68 137.851C1016.68 126.566 1014.83 116.85 1011.15 108.704C1007.46 100.513 1001.96 94.2331 994.629 89.8645C987.302 85.4503 978.178 83.2433 967.256 83.2433H940.225V193.005ZM1061.46 208.022V68.2261H1110.33C1120.07 68.2261 1128.1 69.9098 1134.43 73.2773C1140.75 76.5993 1145.46 81.0817 1148.55 86.7245C1151.65 92.3219 1153.2 98.5335 1153.2 105.36C1153.2 111.366 1152.13 116.327 1149.99 120.24C1147.89 124.154 1145.12 127.248 1141.66 129.524C1138.25 131.799 1134.54 133.483 1130.53 134.575V135.94C1134.81 136.213 1139.11 137.715 1143.44 140.445C1147.76 143.176 1151.38 147.089 1154.29 152.186C1157.2 157.283 1158.66 163.517 1158.66 170.889C1158.66 177.897 1157.06 184.2 1153.88 189.797C1150.69 195.394 1145.67 199.831 1138.79 203.108C1131.92 206.384 1122.98 208.022 1111.97 208.022H1061.46ZM1078.38 193.005H1111.97C1123.03 193.005 1130.88 190.866 1135.52 186.589C1140.2 182.266 1142.55 177.032 1142.55 170.889C1142.55 166.156 1141.34 161.788 1138.93 157.783C1136.52 153.733 1133.08 150.502 1128.62 148.09C1124.16 145.633 1118.88 144.404 1112.79 144.404H1078.38V193.005ZM1078.38 129.66H1109.78C1114.88 129.66 1119.48 128.659 1123.57 126.657C1127.71 124.654 1130.99 121.833 1133.4 118.192C1135.86 114.552 1137.09 110.274 1137.09 105.36C1137.09 99.2161 1134.95 94.0056 1130.67 89.728C1126.39 85.4048 1119.61 83.2433 1110.33 83.2433H1078.38V129.66ZM1304.43 138.124C1304.43 152.868 1301.76 165.61 1296.44 176.35C1291.12 187.089 1283.81 195.372 1274.53 201.196C1265.25 207.021 1254.64 209.934 1242.72 209.934C1230.8 209.934 1220.19 207.021 1210.91 201.196C1201.63 195.372 1194.32 187.089 1189 176.35C1183.67 165.61 1181.01 152.868 1181.01 138.124C1181.01 123.38 1183.67 110.638 1189 99.8987C1194.32 89.1591 1201.63 80.8769 1210.91 75.0521C1220.19 69.2272 1230.8 66.3148 1242.72 66.3148C1254.64 66.3148 1265.25 69.2272 1274.53 75.0521C1283.81 80.8769 1291.12 89.1591 1296.44 99.8987C1301.76 110.638 1304.43 123.38 1304.43 138.124ZM1288.04 138.124C1288.04 126.02 1286.02 115.803 1281.97 107.476C1277.96 99.1479 1272.53 92.8452 1265.65 88.5676C1258.83 84.2899 1251.18 82.1511 1242.72 82.1511C1234.26 82.1511 1226.59 84.2899 1219.72 88.5676C1212.89 92.8452 1207.45 99.1479 1203.4 107.476C1199.4 115.803 1197.39 126.02 1197.39 138.124C1197.39 150.229 1199.4 160.445 1203.4 168.773C1207.45 177.101 1212.89 183.403 1219.72 187.681C1226.59 191.959 1234.26 194.097 1242.72 194.097C1251.18 194.097 1258.83 191.959 1265.65 187.681C1272.53 183.403 1277.96 177.101 1281.97 168.773C1286.02 160.445 1288.04 150.229 1288.04 138.124ZM1332.89 208.022V68.2261H1380.13C1391.05 68.2261 1400.01 70.0919 1407.02 73.8234C1414.03 77.5094 1419.22 82.5834 1422.58 89.0454C1425.95 95.5073 1427.64 102.857 1427.64 111.093C1427.64 119.33 1425.95 126.634 1422.58 133.005C1419.22 139.376 1414.05 144.381 1407.09 148.022C1400.13 151.617 1391.23 153.415 1380.4 153.415H1342.17V138.124H1379.85C1387.32 138.124 1393.32 137.032 1397.87 134.848C1402.47 132.663 1405.79 129.569 1407.84 125.564C1409.93 121.514 1410.98 116.691 1410.98 111.093C1410.98 105.496 1409.93 100.604 1407.84 96.4175C1405.75 92.2308 1402.4 88.9999 1397.81 86.7245C1393.21 84.4037 1387.13 83.2433 1379.58 83.2433H1349.82V208.022H1332.89ZM1398.69 145.223L1433.1 208.022H1413.44L1379.58 145.223H1398.69ZM1551.41 111.912C1549.91 107.316 1547.93 103.198 1545.47 99.5574C1543.06 95.8714 1540.17 92.7314 1536.8 90.1375C1533.48 87.5437 1529.7 85.5641 1525.47 84.1989C1521.24 82.8337 1516.6 82.1511 1511.54 82.1511C1503.26 82.1511 1495.73 84.2899 1488.95 88.5676C1482.17 92.8452 1476.78 99.1479 1472.77 107.476C1468.77 115.803 1466.77 126.02 1466.77 138.124C1466.77 150.229 1468.79 160.445 1472.84 168.773C1476.89 177.101 1482.37 183.403 1489.29 187.681C1496.21 191.959 1503.99 194.097 1512.64 194.097C1520.65 194.097 1527.7 192.391 1533.8 188.978C1539.94 185.519 1544.72 180.65 1548.13 174.37C1551.59 168.045 1553.32 160.605 1553.32 152.049L1558.51 153.141H1516.46V138.124H1569.7V153.141C1569.7 164.655 1567.24 174.666 1562.33 183.176C1557.46 191.686 1550.73 198.284 1542.12 202.971C1533.57 207.613 1523.74 209.934 1512.64 209.934C1500.26 209.934 1489.38 207.021 1480.01 201.196C1470.68 195.372 1463.4 187.089 1458.16 176.35C1452.98 165.61 1450.38 152.868 1450.38 138.124C1450.38 127.066 1451.86 117.123 1454.82 108.295C1457.82 99.4209 1462.06 91.8668 1467.52 85.6324C1472.98 79.398 1479.44 74.6198 1486.9 71.2978C1494.37 67.9758 1502.58 66.3148 1511.54 66.3148C1518.92 66.3148 1525.79 67.4297 1532.16 69.6595C1538.58 71.8439 1544.29 74.9611 1549.29 79.0112C1554.34 83.0157 1558.55 87.8167 1561.92 93.414C1565.29 98.9658 1567.61 105.132 1568.88 111.912H1551.41Z" fill="#2A3689"/>
<path d="M417.024 380.226V260.4H488.873V273.272H431.534V313.76H483.49V326.632H431.534V380.226H417.024ZM614.827 320.313C614.827 332.951 612.545 343.872 607.981 353.078C603.418 362.283 597.157 369.382 589.2 374.375C581.243 379.367 572.155 381.864 561.935 381.864C551.716 381.864 542.627 379.367 534.67 374.375C526.713 369.382 520.453 362.283 515.889 353.078C511.325 343.872 509.044 332.951 509.044 320.313C509.044 307.675 511.325 296.753 515.889 287.548C520.453 278.343 526.713 271.244 534.67 266.251C542.627 261.258 551.716 258.762 561.935 258.762C572.155 258.762 581.243 261.258 589.2 266.251C597.157 271.244 603.418 278.343 607.981 287.548C612.545 296.753 614.827 307.675 614.827 320.313ZM600.785 320.313C600.785 309.937 599.049 301.181 595.578 294.043C592.145 286.904 587.484 281.502 581.594 277.836C575.743 274.169 569.19 272.336 561.935 272.336C554.68 272.336 548.108 274.169 542.218 277.836C536.367 281.502 531.706 286.904 528.234 294.043C524.802 301.181 523.086 309.937 523.086 320.313C523.086 330.688 524.802 339.445 528.234 346.583C531.706 353.721 536.367 359.124 542.218 362.79C548.108 366.457 554.68 368.29 561.935 368.29C569.19 368.29 575.743 366.457 581.594 362.79C587.484 359.124 592.145 353.721 595.578 346.583C599.049 339.445 600.785 330.688 600.785 320.313ZM717.86 260.4H732.371V339.738C732.371 347.929 730.44 355.242 726.578 361.678C722.756 368.075 717.353 373.127 710.371 376.832C703.389 380.499 695.198 382.332 685.798 382.332C676.397 382.332 668.206 380.499 661.224 376.832C654.242 373.127 648.82 368.075 644.959 361.678C641.136 355.242 639.225 347.929 639.225 339.738V260.4H653.735V338.568C653.735 344.418 655.022 349.626 657.597 354.189C660.171 358.714 663.838 362.283 668.596 364.896C673.394 367.471 679.128 368.758 685.798 368.758C692.468 368.758 698.202 367.471 702.999 364.896C707.797 362.283 711.464 358.714 713.999 354.189C716.573 349.626 717.86 344.418 717.86 338.568V260.4ZM856.365 260.4V380.226H842.323L777.027 286.144H775.857V380.226H761.347V260.4H775.389L840.918 354.716H842.089V260.4H856.365ZM922.377 380.226H885.4V260.4H924.015C935.639 260.4 945.585 262.799 953.855 267.597C962.124 272.355 968.462 279.201 972.87 288.133C977.277 297.026 979.481 307.675 979.481 320.079C979.481 332.561 977.258 343.307 972.811 352.317C968.365 361.288 961.89 368.192 953.387 373.029C944.883 377.827 934.547 380.226 922.377 380.226ZM899.91 367.354H921.441C931.348 367.354 939.559 365.442 946.073 361.62C952.587 357.797 957.443 352.356 960.642 345.296C963.84 338.236 965.439 329.83 965.439 320.079C965.439 310.405 963.86 302.078 960.7 295.096C957.541 288.075 952.821 282.692 946.541 278.947C940.261 275.164 932.44 273.272 923.079 273.272H899.91V367.354ZM1003.1 380.226H987.892L1031.89 260.4H1046.87L1090.87 380.226H1075.65L1039.85 279.357H1038.91L1003.1 380.226ZM1008.72 333.419H1070.04V346.291H1008.72V333.419ZM1088.98 273.272V260.4H1178.85V273.272H1141.17V380.226H1126.66V273.272H1088.98ZM1215.75 260.4V380.226H1201.24V260.4H1215.75ZM1345.95 320.313C1345.95 332.951 1343.67 343.872 1339.1 353.078C1334.54 362.283 1328.28 369.382 1320.32 374.375C1312.37 379.367 1303.28 381.864 1293.06 381.864C1282.84 381.864 1273.75 379.367 1265.79 374.375C1257.84 369.382 1251.58 362.283 1247.01 353.078C1242.45 343.872 1240.17 332.951 1240.17 320.313C1240.17 307.675 1242.45 296.753 1247.01 287.548C1251.58 278.343 1257.84 271.244 1265.79 266.251C1273.75 261.258 1282.84 258.762 1293.06 258.762C1303.28 258.762 1312.37 261.258 1320.32 266.251C1328.28 271.244 1334.54 278.343 1339.1 287.548C1343.67 296.753 1345.95 307.675 1345.95 320.313ZM1331.91 320.313C1331.91 309.937 1330.17 301.181 1326.7 294.043C1323.27 286.904 1318.61 281.502 1312.72 277.836C1306.87 274.169 1300.31 272.336 1293.06 272.336C1285.8 272.336 1279.23 274.169 1273.34 277.836C1267.49 281.502 1262.83 286.904 1259.36 294.043C1255.92 301.181 1254.21 309.937 1254.21 320.313C1254.21 330.688 1255.92 339.445 1259.36 346.583C1262.83 353.721 1267.49 359.124 1273.34 362.79C1279.23 366.457 1285.8 368.29 1293.06 368.29C1300.31 368.29 1306.87 366.457 1312.72 362.79C1318.61 359.124 1323.27 353.721 1326.7 346.583C1330.17 339.445 1331.91 330.688 1331.91 320.313ZM1465.37 260.4V380.226H1451.32L1386.03 286.144H1384.86V380.226H1370.35V260.4H1384.39L1449.92 354.716H1451.09V260.4H1465.37Z" fill="#2A3689"/>
</g>
<defs>
<clipPath id="clip0_253_2">
<rect width="1782" height="437" fill="white" transform="translate(0 0.0654297)"/>
</clipPath>
</defs>
</svg>
