<?xml version="1.0" encoding="UTF-8"?>
<svg xmlns="http://www.w3.org/2000/svg" version="1.1" viewBox="0 0 1478.72 574.13">
  <defs>
    <style>
      .cls-1 {
        font-size: 268.9px;
        letter-spacing: .11em;
      }

      .cls-1, .cls-2 {
        font-family: Perpetua, Perpetua;
      }

      .cls-3 {
        font-size: 313.72px;
      }

      .cls-3, .cls-4 {
        font-family: Perpetua-Bold, Perpetua;
        font-weight: 700;
      }

      .cls-2 {
        font-size: 146.6px;
        letter-spacing: .17em;
      }

      .cls-2, .cls-5, .cls-4 {
        fill: #2a3689;
      }

      .cls-6 {
        fill: #3969b2;
      }

      .cls-6, .cls-7, .cls-8, .cls-9 {
        fill-rule: evenodd;
      }

      .cls-4 {
        font-size: 158.82px;
      }

      .cls-7 {
        fill: #f8ec23;
      }

      .cls-8 {
        fill: #d02028;
      }
    </style>
  </defs>
  <!-- Generator: Adobe Illustrator 28.7.5, SVG Export Plug-In . SVG Version: 1.2.0 Build 176)  -->
  <g>
    <g id="Layer_1">
      <rect x="299.5" y="-755.8" width="4.41" height="454.38"/>
      <path class="cls-6" d="M210.31-729.48c-62,90.39-60.59,183.74-30.7,278.53-82.76-85.69-103.52-255.12,30.7-278.53h0Z"/>
      <path class="cls-7" d="M110.95-665.1c-149.69,106.85,11.49,260.62,117.22,322.81-64.88-97.5-163.59-198.02-117.22-322.81h0Z"/>
      <path class="cls-8" d="M201.91-340.87c-79.27-49.61-149.56-109.21-175.95-217.98-62.87,147.59,60.68,191.08,175.95,217.98h0Z"/>
      <path class="cls-9" d="M176.56-323.65c-79.53-17.49-144.79-49.29-181.56-109,5.38,125.6,76.49,124.07,181.56,109h0Z"/>
      <text class="cls-3" transform="translate(379.98 -543.27)"><tspan x="0" y="0">PKHEDBORG</tspan></text>
      <text class="cls-1" transform="translate(380.97 -317.94)"><tspan x="0" y="0">FOUNDATION</tspan></text>
      <path class="cls-6" d="M317.91,9.52c-82.14,119.75-80.27,243.41-40.67,368.99C167.6,264.99,140.11,40.53,317.91,9.52h0Z"/>
      <path class="cls-7" d="M186.28,94.81c-198.31,141.55,15.22,345.27,155.3,427.66C255.62,393.3,124.85,260.13,186.28,94.81h0Z"/>
      <path class="cls-8" d="M306.78,524.35c-105.02-65.72-198.13-144.68-233.1-288.78-83.29,195.52,80.38,253.14,233.1,288.78h0Z"/>
      <path class="cls-9" d="M273.2,547.16c-105.36-23.16-191.81-65.31-240.53-144.4,7.13,166.39,101.34,164.36,240.53,144.4h0Z"/>
      <path class="cls-5" d="M1005.72,405.83"/>
      <text class="cls-4" transform="translate(360.92 282.99)"><tspan x="0" y="0">P&amp;K HEDBORG</tspan></text>
      <text class="cls-2" transform="translate(361.46 405.84)"><tspan x="0" y="0">FOUNDATION</tspan></text>
    </g>
  </g>
</svg>