<?xml version="1.0" encoding="UTF-8"?>
<svg id="Layer_1" xmlns="http://www.w3.org/2000/svg" version="1.1" viewBox="0 0 841.89 232.39">
  <!-- Generator: Adobe Illustrator 29.1.0, SVG Export Plug-In . SVG Version: 2.1.0 Build 142)  -->
  <defs>
    <style>
      .st0 {
        font-family: Perpetua, Perpetua;
        font-size: 74.44px;
        letter-spacing: .11em;
      }

      .st0, .st1 {
        fill: #2a3689;
      }

      .st2 {
        fill: #252932;
      }

      .st3 {
        fill: #fff;
        fill-rule: evenodd;
      }

      .st4 {
        fill: #d3ae34;
      }

      .st1 {
        font-family: Perpetua-Bold, Perpetua;
        font-size: 86.84px;
        font-weight: 700;
      }
    </style>
  </defs>
  <rect class="st2" x="28.35" y="45.65" width="139.69" height="139.69"/>
  <g>
    <path class="st3" d="M125.94,54.27c-17.42,25.4-17.03,51.63-8.63,78.27-23.26-24.08-29.09-71.69,8.63-78.27h0Z"/>
    <path class="st3" d="M98.02,72.36c-42.06,30.03,3.23,73.24,32.94,90.71-18.23-27.4-45.97-55.65-32.94-90.71h0Z"/>
    <path class="st3" d="M123.58,163.48c-22.28-13.94-42.03-30.69-49.44-61.26-17.67,41.47,17.05,53.69,49.44,61.26h0Z"/>
    <path class="st3" d="M116.46,168.32c-22.35-4.91-40.69-13.85-51.02-30.63,1.51,35.29,21.5,34.86,51.02,30.63h0Z"/>
  </g>
  <g>
    <path class="st2" d="M188.28,53.06h28.73c5.92,0,10.58,1.37,13.99,4.11,3.41,2.74,5.12,6.31,5.12,10.7,0,4.73-1.89,8.61-5.68,11.63-3.78,3.02-8.99,4.53-15.63,4.53-2.31,0-4.67-.16-7.1-.47v15.98c0,2.52.51,4.34,1.52,5.47,1.01,1.12,2.84,1.92,5.49,2.38v1.63h-26.44v-1.63c2.83-.56,4.73-1.41,5.68-2.55.95-1.14,1.42-3.12,1.42-5.96v-36.53c0-2.55-.45-4.31-1.35-5.28-.9-.97-2.82-1.76-5.75-2.38v-1.64ZM212.43,56.24h-4.72v24.01c1.43.44,2.8.65,4.11.65,3.43,0,6.1-1.1,8.04-3.29,1.93-2.2,2.9-5.27,2.9-9.23,0-3.61-.95-6.54-2.85-8.78-1.9-2.24-4.39-3.36-7.48-3.36Z"/>
    <path class="st2" d="M279.19,64.03l-10.41,9.84,22.4,27.58c1.87,2.31,3.33,3.84,4.39,4.59,1.05.75,2.36,1.21,3.91,1.36v1.63h-25.56v-1.63c2.58-.59,3.88-1.48,3.88-2.66,0-.65-.39-1.45-1.17-2.38l-17.52-21.72v18.27c0,2.71.38,4.57,1.15,5.58.77,1.01,2.72,1.99,5.86,2.92v1.63h-26.44v-1.63c2.96-.68,4.88-1.56,5.77-2.62.89-1.06,1.33-2.9,1.33-5.51v-36.72c0-2.55-.46-4.33-1.38-5.33-.92-1-2.83-1.84-5.72-2.52v-1.64h26.44v1.64c-2.73.62-4.58,1.47-5.55,2.55-.97,1.07-1.46,2.61-1.46,4.6v16.59l17.24-16.59c1.15-1.09,1.73-2.16,1.73-3.22,0-1.81-1.73-3.11-5.19-3.92v-1.64h23.27v1.64c-2.62,0-5.19.69-7.73,2.08-2.54,1.39-5.61,3.8-9.23,7.25Z"/>
    <path class="st2" d="M350.34,98.33v-16.49h-26.86v17.71c0,2.55.44,4.32,1.31,5.3.87.98,2.73,1.83,5.56,2.55v1.63h-26.3v-1.63c1.99-.5,3.48-1.04,4.46-1.64.98-.59,1.67-1.35,2.06-2.27.39-.92.58-2.64.58-5.16v-35.79c0-2.52-.46-4.29-1.38-5.3-.92-1.01-2.83-1.86-5.72-2.55v-1.64h26.3v1.64c-2.71.62-4.53,1.46-5.47,2.5-.93,1.04-1.4,2.69-1.4,4.93v15.7h26.86v-15.28c0-2.52-.45-4.29-1.36-5.3-.91-1.01-2.79-1.86-5.64-2.55v-1.64h26.44v1.64c-2.99.78-4.92,1.66-5.79,2.64-.87.98-1.31,3.12-1.31,6.42v35.79c0,2.49.45,4.24,1.36,5.26.9,1.01,2.82,1.88,5.75,2.59v1.63h-26.44v-1.63c2.73-.62,4.58-1.47,5.55-2.55.97-1.07,1.46-3.25,1.46-6.52Z"/>
    <path class="st2" d="M413.88,72.36h1.82v17.33h-1.82c-.65-4.77-3.24-7.15-7.76-7.15h-9.86v16.45c0,2.52.57,4.3,1.72,5.33,1.15,1.03,3.12,1.54,5.92,1.54h3.26c5.47,0,9.39-3.47,11.75-10.42h1.63l-1.03,13.6h-42.61v-1.63c2.82-.59,4.69-1.44,5.62-2.55s1.39-3.25,1.39-6.42v-35.97c0-2.62-.48-4.43-1.44-5.44-.96-1.01-2.82-1.78-5.57-2.31v-1.64h41.95v12.43h-1.64c-.93-3.64-2.09-6.1-3.48-7.36-1.39-1.26-3.6-1.89-6.66-1.89h-10.84v23.13h9.86c2.24,0,3.96-.53,5.14-1.6s2.06-2.87,2.62-5.41Z"/>
    <path class="st2" d="M425.51,109.03v-1.63c2.96-.81,4.88-1.71,5.77-2.69s1.33-3.11,1.33-6.38v-35.69c0-2.52-.44-4.28-1.33-5.28s-2.81-1.88-5.77-2.66v-1.64h28.64c10.4,0,18.62,2.63,24.64,7.9,6.03,5.26,9.04,12.19,9.04,20.79s-2.69,14.9-8.08,19.86-12.68,7.43-21.86,7.43h-32.38ZM452.24,56.24h-7.29v43.03c0,2.4.7,4.1,2.1,5.09,1.4,1,3.74,1.5,7.01,1.5,6.48,0,11.49-2.15,15.04-6.45,3.55-4.3,5.33-10.37,5.33-18.22s-1.95-13.77-5.84-18.24c-3.89-4.47-9.34-6.7-16.35-6.7Z"/>
    <path class="st2" d="M528.22,109.03h-33.7v-1.63c2.91-.59,4.8-1.44,5.69-2.55s1.32-2.87,1.32-5.3v-37.19c0-2.55-.49-4.37-1.46-5.44-.97-1.07-2.82-1.81-5.55-2.22v-1.64h29.5c6.04,0,10.75,1.14,14.14,3.43,3.39,2.29,5.09,5.52,5.09,9.69,0,6.48-4.14,10.87-12.43,13.17v.19c10.59,1.93,15.89,6.85,15.89,14.76,0,4.39-1.68,7.94-5.04,10.65-3.36,2.71-7.84,4.06-13.44,4.06ZM513.86,56.24v22.47h4.53c3.58,0,6.38-1,8.41-2.99s3.04-4.77,3.04-8.32c0-7.44-4.11-11.17-12.33-11.17h-3.64ZM520.49,81.84h-6.63v17.15c0,2.49.62,4.26,1.87,5.3s3.33,1.56,6.26,1.56c3.52,0,6.28-1.05,8.29-3.15s3.01-5.01,3.01-8.71-1.13-6.62-3.39-8.83c-2.26-2.21-5.4-3.32-9.41-3.32Z"/>
    <path class="st2" d="M615.14,81.09c0,8.57-2.87,15.6-8.6,21.12s-13.05,8.27-21.96,8.27-16.16-2.76-21.86-8.27c-5.7-5.51-8.55-12.55-8.55-21.12s2.86-15.62,8.57-21.16c5.72-5.54,13-8.32,21.84-8.32s16.23,2.77,21.96,8.32c5.73,5.54,8.6,12.6,8.6,21.16ZM601.74,81.47c0-8.69-1.46-15.31-4.37-19.86-2.91-4.55-7.17-6.82-12.78-6.82s-9.76,2.27-12.66,6.82c-2.9,4.55-4.34,11.2-4.34,19.95,0,8.13,1.46,14.45,4.39,18.97,2.93,4.52,7.13,6.77,12.61,6.77s9.59-2.24,12.61-6.73c3.02-4.49,4.53-10.85,4.53-19.11Z"/>
    <path class="st2" d="M621.64,109.03v-1.63c4.73-.37,7.1-2.76,7.1-7.15v-37.89c0-2.58-.49-4.38-1.47-5.37-.98-1-2.86-1.76-5.63-2.29v-1.64h26.63c6.98,0,12.34,1.23,16.1,3.69,3.75,2.46,5.63,5.92,5.63,10.37,0,3.21-.98,5.96-2.93,8.27-1.95,2.31-4.75,3.99-8.39,5.05v.19c1.31.31,2.73,1.4,4.25,3.25,1.53,1.86,3.74,5.49,6.64,10.91,2.84,5.26,4.91,8.59,6.2,9.99,1.29,1.4,3.06,2.27,5.3,2.62v1.63h-16.14c-2.11-2.5-4.83-7.04-8.14-13.6-2.28-4.51-3.98-7.52-5.08-9.01-1.11-1.5-2.26-2.55-3.46-3.15-1.2-.61-3.59-.91-7.17-.91v17.19c0,2.46.54,4.29,1.64,5.49,1.09,1.2,2.94,1.99,5.56,2.36v1.63h-26.63ZM644.9,56.24h-3.83v22.94c.97.06,1.87.09,2.71.09,4.45,0,7.7-.96,9.74-2.87,2.04-1.92,3.06-4.94,3.06-9.09,0-7.38-3.89-11.07-11.68-11.07Z"/>
    <path class="st2" d="M737.97,53.06v15.7h-1.73c-1.65-4.27-4.21-7.66-7.69-10.18-3.47-2.52-7.31-3.78-11.52-3.78-5.67,0-10.05,2.41-13.15,7.24-3.1,4.83-4.65,11.63-4.65,20.42,0,8.1,1.54,14.27,4.63,18.5,3.08,4.24,7.54,6.35,13.36,6.35s8.41-1.98,8.41-5.93v-8.32c0-3.83-1.92-6.12-5.75-6.87v-1.63h23.55v1.63c-2.06.56-3.48,1.46-4.27,2.69-.79,1.23-1.19,3.14-1.19,5.72v11.87c-5.61,2.68-12.85,4.02-21.72,4.02-5.92,0-11.17-1.23-15.74-3.69-4.58-2.46-8.17-5.96-10.77-10.49-2.6-4.53-3.9-9.48-3.9-14.83,0-8.56,2.88-15.68,8.64-21.35,5.76-5.67,13.02-8.5,21.77-8.5,3.46,0,7.23.73,11.31,2.2,2.15.78,3.71,1.17,4.67,1.17,1.43,0,2.77-.64,4.02-1.92h1.73Z"/>
  </g>
  <g>
    <path class="st2" d="M212.56,155.05h-12.41v13.88c0,2.81.39,4.75,1.16,5.84.77,1.08,2.18,1.62,4.2,1.62v1.36h-16.9v-1.36c2.03,0,3.42-.54,4.18-1.62s1.14-3.03,1.14-5.83v-29.3c0-2.83-.37-4.79-1.12-5.87-.75-1.08-2.15-1.62-4.2-1.62v-1.36h32.24v8.33h-1.08c-.51-2.48-1.18-4.11-2-4.89-.83-.77-2.71-1.16-5.65-1.16h-11.97v19.66h12.25c1.66,0,2.88-.42,3.68-1.26.8-.84,1.32-2.28,1.56-4.3h1.28v13.21h-1.28c-.16-3.55-1.86-5.33-5.09-5.33Z"/>
    <path class="st2" d="M236.91,154.05c0-6.97,2.4-12.78,7.21-17.44,4.81-4.66,10.8-6.99,17.98-6.99s12.86,2.36,17.68,7.09c4.82,4.73,7.23,10.51,7.23,17.34s-2.43,12.85-7.29,17.66c-4.86,4.81-10.8,7.21-17.82,7.21s-12.91-2.4-17.74-7.21c-4.83-4.81-7.25-10.69-7.25-17.66ZM244.12,154.13c0,6.86,1.63,12.41,4.89,16.64,3.26,4.23,7.53,6.35,12.81,6.35s9.67-2.16,12.99-6.49c3.32-4.32,4.99-9.72,4.99-16.18,0-6.94-1.63-12.51-4.89-16.72-3.26-4.2-7.48-6.31-12.65-6.31-5.5,0-9.9,2.07-13.19,6.21-3.3,4.14-4.95,9.64-4.95,16.5Z"/>
    <path class="st2" d="M340.63,167.9v-28.27c0-2.75-.37-4.67-1.1-5.75-.73-1.08-2.04-1.66-3.9-1.74v-1.36h16.58v1.36c-2,0-3.39.55-4.16,1.64-.77,1.1-1.16,3.05-1.16,5.85v29.3c0,2.75.38,4.68,1.14,5.79s2.16,1.66,4.18,1.66v1.36h-11.57v-6.57c-4.4,5.15-9.62,7.73-15.66,7.73-4.97,0-8.87-1.48-11.71-4.45-2.84-2.96-4.27-6.87-4.27-11.73v-23.11c0-2.8-.37-4.75-1.1-5.85-.73-1.09-2.14-1.64-4.22-1.64v-1.36h16.98v1.36c-2.11,0-3.54.53-4.28,1.6s-1.12,3-1.12,5.81v23.79c0,3.84,1.05,6.87,3.16,9.07,2.11,2.2,5.05,3.3,8.81,3.3,5.58,0,10.05-2.6,13.41-7.81Z"/>
    <path class="st2" d="M401.51,132.14v-1.36h14.18v1.36c-2.27,0-3.84.53-4.73,1.6-.88,1.07-1.32,3-1.32,5.81v38.2h-1.44l-33.28-40.85v32.99c0,2.33.47,3.99,1.42,4.99.95,1,2.53,1.5,4.75,1.5v1.36h-14.26v-1.36c2.27,0,3.8-.59,4.61-1.78.8-1.19,1.2-3.28,1.2-6.27v-27.5c0-2.97-.54-5.1-1.62-6.39s-2.86-2.06-5.35-2.31v-1.36h12.06l29.51,36.56v-27.47c0-2.88-.41-4.89-1.22-6.03-.81-1.13-2.32-1.7-4.5-1.7Z"/>
    <path class="st2" d="M430.14,177.75v-1.36c2.01,0,3.4-.55,4.17-1.66.77-1.11,1.15-3.04,1.15-5.79v-29.3c0-2.81-.38-4.76-1.15-5.85-.77-1.1-2.16-1.64-4.17-1.64v-1.36h21.73c8.03,0,14.45,2.28,19.26,6.85s7.22,10.37,7.22,17.42-2.28,12.43-6.84,16.54c-4.56,4.11-10.91,6.17-19.05,6.17h-22.33ZM450.61,132.58h-8.93v34.68c0,3.34.4,5.62,1.2,6.85.8,1.23,2.4,1.84,4.81,1.84h4.84c5.77,0,10.3-1.86,13.61-5.59,3.31-3.72,4.97-8.8,4.97-15.24,0-6.83-1.81-12.3-5.43-16.4-3.62-4.1-8.64-6.15-15.08-6.15Z"/>
    <path class="st2" d="M517.77,177.75v-1.36c2.69,0,4.04-.94,4.04-2.81,0-.54-.12-1.14-.36-1.81l-4.36-13.04h-15.08l-3.21,9.43c-.8,2.38-1.2,4.11-1.2,5.18,0,1.98,1.24,3,3.71,3.05v1.36h-12.13v-1.36c1.74-.24,3.09-.82,4.05-1.73.96-.91,1.94-2.8,2.93-5.66l12.99-38.75h4.83l13.64,40.47c.8,2.38,1.64,3.92,2.5,4.62.87.7,2.26,1.04,4.19,1.04v1.36h-16.54ZM502.87,155.85h13.25l-6.66-19.9-6.59,19.9Z"/>
    <path class="st2" d="M571.51,133.07h-7.13v36.11c0,2.83.35,4.74,1.04,5.73.69.99,2.04,1.48,4.04,1.48v1.36h-16.62v-1.36c2.07,0,3.47-.57,4.21-1.7.74-1.14,1.11-3.05,1.11-5.75v-35.87h-6.81c-3.26,0-5.63.52-7.11,1.56-1.48,1.04-2.32,2.76-2.5,5.17h-1.4v-10.77h1.4c1.25,1.17,3.6,1.76,7.05,1.76h24.63c3.55,0,6.03-.59,7.45-1.76h1.48v10.77h-.92c-.59-2.59-1.64-4.36-3.14-5.31-1.51-.95-3.77-1.42-6.79-1.42Z"/>
    <path class="st2" d="M612.36,130.78v1.36c-2,0-3.39.55-4.16,1.64-.77,1.1-1.16,3.05-1.16,5.85v29.3c0,2.81.39,4.75,1.16,5.83s2.16,1.62,4.16,1.62v1.36h-16.9v-1.36c2.06,0,3.46-.53,4.2-1.6.75-1.07,1.12-3.02,1.12-5.85v-29.3c0-2.89-.37-4.86-1.1-5.91-.73-1.06-2.14-1.58-4.23-1.58v-1.36h16.9Z"/>
    <path class="st2" d="M628.18,154.05c0-6.97,2.4-12.78,7.21-17.44,4.81-4.66,10.8-6.99,17.98-6.99s12.86,2.36,17.68,7.09c4.82,4.73,7.23,10.51,7.23,17.34s-2.43,12.85-7.29,17.66c-4.86,4.81-10.8,7.21-17.82,7.21s-12.91-2.4-17.74-7.21c-4.83-4.81-7.25-10.69-7.25-17.66ZM635.39,154.13c0,6.86,1.63,12.41,4.88,16.64,3.26,4.23,7.53,6.35,12.81,6.35s9.67-2.16,12.99-6.49,4.99-9.72,4.99-16.18c0-6.94-1.63-12.51-4.89-16.72-3.26-4.2-7.47-6.31-12.65-6.31-5.5,0-9.9,2.07-13.19,6.21-3.3,4.14-4.95,9.64-4.95,16.5Z"/>
    <path class="st2" d="M729.3,132.14v-1.36h14.18v1.36c-2.27,0-3.84.53-4.73,1.6s-1.32,3-1.32,5.81v38.2h-1.44l-33.28-40.85v32.99c0,2.33.47,3.99,1.42,4.99.95,1,2.53,1.5,4.74,1.5v1.36h-14.26v-1.36c2.27,0,3.8-.59,4.61-1.78.8-1.19,1.2-3.28,1.2-6.27v-27.5c0-2.97-.54-5.1-1.62-6.39s-2.86-2.06-5.35-2.31v-1.36h12.05l29.51,36.56v-27.47c0-2.88-.41-4.89-1.22-6.03-.81-1.13-2.32-1.7-4.5-1.7Z"/>
  </g>
  <rect class="st4" x="-874.92" y="240.19" width="126.78" height="126.78"/>
  <g>
    <path class="st3" d="M-786.35,248.01c-15.81,23.06-15.45,46.86-7.83,71.04-21.11-21.86-26.4-65.07,7.83-71.04h0Z"/>
    <path class="st3" d="M-811.69,264.44c-38.18,27.25,2.93,66.47,29.9,82.34-16.55-24.87-41.73-50.51-29.9-82.34h0Z"/>
    <path class="st3" d="M-788.49,347.13c-20.22-12.65-38.15-27.85-44.88-55.6-16.03,37.64,15.48,48.74,44.88,55.6h0Z"/>
    <path class="st3" d="M-794.95,351.52c-20.28-4.46-36.93-12.57-46.31-27.8,1.37,32.03,19.51,31.64,46.31,27.8h0Z"/>
  </g>
  <text class="st1" transform="translate(-732.35 297.72)"><tspan x="0" y="0">PKHEDBORG</tspan></text>
  <text class="st0" transform="translate(-732.08 360.09)"><tspan x="0" y="0">FOUNDATION</tspan></text>
</svg>